<svg xmlns="http://www.w3.org/2000/svg" width="24" height="24" viewBox="0 0 24 24" fill="currentColor">
  <path d="
    M17.929 15.571L17.856 15.609L17.424 14.708Z
    M20.632 12.222L20.604 12.309L19.665 11.965Z
    M8.448 2.957L8.903 3.218L8.942 3.242L9.088 3.334L9.56 3.229L9.632 3.216L10.518 3.086L10.59 3.079L11.481 3.014L11.554 3.011H12.446L12.519 3.014L13.41 3.079L13.482 3.086L14.368 3.216L14.44 3.229L14.912 3.334L15.058 3.242L15.097 3.218L15.552 2.957L16.05 3.824L15.552 2.957L15.595 2.934L16.011 2.721L16.057 2.699L16.435 2.53L16.486 2.509L16.843 3.443L16.486 2.509L16.826 2.379L16.88 2.359L17.182 2.264L17.241 2.247L17.506 2.18L17.568 2.167L17.797 2.124L17.862 2.115L18.054 2.092L18.121 2.087L18.277 2.079L18.326 3.078L18.277 2.079L18.346 2.078L18.467 2.081L18.536 2.084L18.622 2.092L18.69 2.101L18.741 2.109L18.802 2.12L18.819 2.124L19.052 2.208L19.257 2.346L19.422 2.531L19.537 2.751L19.729 3.267L19.767 3.392L19.889 3.925L18.915 4.149L19.889 3.925L19.91 4.053L19.962 4.594L18.967 4.69L19.962 4.594L19.966 4.724L19.948 5.267L19.935 5.397L19.846 5.936L19.817 6.063L19.816 6.064L19.857 6.116L20.144 6.532L20.201 6.625L19.322 7.1L20.201 6.625L20.441 7.068L20.487 7.167L20.676 7.632L20.712 7.736L19.75 8.009L20.712 7.736L20.849 8.22L20.874 8.327L20.957 8.825L20.97 8.935L20.998 9.444L21 9.532L20.977 10.229L19.978 10.198L20.977 10.229L20.973 10.298L20.908 10.94L20.898 11.015L19.913 10.839L20.898 11.015L20.793 11.603L20.775 11.685L19.808 11.428L20.775 11.685L20.632 12.222L19.665 11.965L20.604 12.309L20.426 12.797L19.486 12.454L20.426 12.797L20.388 12.886L20.176 13.329L20.127 13.418L19.274 12.896L20.127 13.418L19.884 13.816L19.825 13.901L19.031 13.294L19.825 13.901L19.553 14.258L19.486 14.337L19.186 14.654L19.114 14.724L18.459 13.968L19.114 14.724L18.79 15.004L18.715 15.063L18.369 15.309L18.294 15.357L17.929 15.571L17.424 14.708L17.856 15.609L17.473 15.793L17.406 15.822L17.041 14.891L17.406 15.822L17.008 15.979L16.946 16L16.642 15.048L16.946 16L16.535 16.132L16.48 16.148L16.231 15.179L16.48 16.148L16.057 16.256L16.009 16.267L15.973 16.274L15.975 16.286L15.987 16.385L16.001 16.603L16.004 16.661L15.004 16.67L16.004 16.661L16.006 16.904V16.926L16.003 17.198L16 17.504V21L15.966 21.259L15.866 21.5L15.707 21.707L15.5 21.866L15.259 21.966L15 22L14.741 21.966L14.5 21.866L14.293 21.707L14.134 21.5L14.034 21.259L14 21V17.5V17.492L14.003 17.179L15.003 17.188H15.002L14.003 17.179V17.175L14.006 16.912L14.004 16.709L13.995 16.569L13.981 16.485L13.966 16.437L13.943 16.391L13.892 16.318L13.758 16.171L13.605 15.946L13.518 15.688L13.503 15.417L13.563 15.151L13.692 14.911L13.88 14.715L14.115 14.577L14.378 14.508L14.8 14.455L15.198 14.392L15.584 14.313L15.954 14.218L16.308 14.105L16.641 13.974L16.955 13.824L17.247 13.653L17.517 13.461L17.766 13.245L17.995 13.002L18.205 12.728L18.395 12.417L18.564 12.064L18.711 11.664L18.831 11.211L18.922 10.701L18.98 10.132L18.999 9.512L18.976 9.103L18.91 8.713L18.803 8.334L18.655 7.97L18.468 7.624L18.243 7.299L17.945 6.956L17.805 6.747L17.722 6.509L17.701 6.258L17.743 6.01L17.884 5.545L17.951 5.135L17.965 4.721L17.926 4.309L17.888 4.146L17.759 4.179L17.513 4.257L17.227 4.367L16.898 4.514L16.526 4.704L16.112 4.941L15.637 5.244L15.4 5.354L15.143 5.399L14.883 5.376L14.042 5.19L13.229 5.071L12.41 5.011H11.59L10.771 5.071L9.958 5.19L9.117 5.376L8.857 5.399L8.6 5.354L8.363 5.244L7.888 4.941L7.474 4.704L7.102 4.514L6.773 4.367L6.487 4.257L6.241 4.179L6.112 4.146L6.074 4.309L6.035 4.721L6.049 5.135L6.116 5.545L6.257 6.01L6.299 6.258L6.278 6.509L6.195 6.747L6.055 6.956L5.757 7.299L5.532 7.624L5.345 7.97L5.197 8.334L5.09 8.713L5.024 9.103L5.001 9.512L5.02 10.132L5.078 10.701L5.169 11.211L5.289 11.664L5.436 12.064L5.605 12.417L5.795 12.728L6.005 13.002L6.234 13.245L6.483 13.461L6.753 13.653L7.045 13.824L7.359 13.974L7.692 14.105L8.046 14.218L8.416 14.313L8.802 14.392L9.2 14.455L9.622 14.508L9.883 14.576L10.115 14.712L10.303 14.904L10.433 15.14L10.495 15.401L10.485 15.67L10.404 15.927L10.258 16.152L10.091 16.346L10.025 16.457L9.985 16.561L9.961 16.688L9.952 16.862L9.962 17.093L9.994 17.394L10 17.5V21L9.966 21.259L9.866 21.5L9.707 21.707L9.5 21.866L9.259 21.966L9 22L8.741 21.966L8.5 21.866L8.293 21.707L8.134 21.5L8.034 21.259L8 21V20.253L7.625 20.291L7.52 20.297L7.112 20.295L6.997 20.288L6.625 20.244L6.505 20.222L6.167 20.139L6.049 20.102L5.742 19.985L5.632 19.935L5.353 19.787L5.257 19.729L5.004 19.556L5.568 18.73L5.004 19.556L4.924 19.495L4.693 19.3L4.63 19.243L5.337 18.535L4.63 19.243L4.418 19.031L4.371 18.98L4.175 18.755L4.141 18.715L3.959 18.481L4.746 17.865L3.959 18.481L3.937 18.452L3.764 18.214L3.752 18.197L4.574 17.628L3.752 18.197L3.588 17.959L3.585 17.956L4.409 17.39L3.585 17.956L3.428 17.728L3.283 17.521L3.148 17.344L3.027 17.2L2.92 17.093L2.834 17.023L2.768 16.984L2.633 16.93L2.405 16.804L2.217 16.622L2.083 16.399L2.011 16.148L2.006 15.887L2.07 15.633L2.196 15.405L2.378 15.217L2.601 15.083L2.852 15.011L3.113 15.006L3.367 15.07L3.579 15.153L3.728 15.227L3.213 16.084L3.728 15.227L3.924 15.345L4.038 15.425L4.221 15.573L3.592 16.35L4.221 15.573L4.301 15.645L4.474 15.819L4.528 15.878L4.693 16.073L4.727 16.115L3.929 16.719L4.727 16.115L4.887 16.328L4.907 16.354L5.066 16.579L5.073 16.59L4.249 17.156L5.073 16.59L5.232 16.822L5.39 17.049L5.546 17.264L5.7 17.462L5.856 17.641L6.014 17.798L6.174 17.933L6.339 18.046L6.514 18.139L6.705 18.212L6.923 18.265L7.176 18.295L7.474 18.296L7.823 18.261L8 18.226V17.553L7.97 17.275L7.966 17.215L7.951 16.905L7.952 16.806L8.95 16.859L7.952 16.806L7.967 16.513L8.966 16.566L7.967 16.513L7.984 16.376L8.005 16.27L7.991 16.267L7.943 16.256L7.52 16.148L7.465 16.132L7.054 16L7.358 15.048L7.054 16L6.992 15.979L6.594 15.822L6.959 14.891L6.594 15.822L6.527 15.793L6.144 15.609L6.071 15.571L5.706 15.357L5.631 15.309L5.285 15.063L5.21 15.004L4.886 14.724L4.814 14.654L4.514 14.337L4.447 14.258L4.175 13.901L4.969 13.294L4.175 13.901L4.116 13.816L3.873 13.418L4.726 12.896L3.873 13.418L3.824 13.329L3.612 12.886L3.574 12.797L4.514 12.454L3.574 12.797L3.396 12.309L4.335 11.965L3.396 12.309L3.368 12.222L3.225 11.685L4.192 11.428L3.225 11.685L3.207 11.603L3.102 11.015L4.087 10.839L3.102 11.015L3.092 10.94L3.027 10.298L3.023 10.229L4.022 10.198L3.023 10.229L3.001 9.532L3.002 9.444L3.03 8.935L3.043 8.825L3.126 8.327L3.151 8.22L3.288 7.736L4.25 8.009L3.288 7.736L3.324 7.632L3.513 7.167L3.559 7.068L3.799 6.625L4.678 7.1L3.799 6.625L3.856 6.532L4.143 6.116L4.184 6.064L4.183 6.063L4.154 5.936L4.065 5.397L4.052 5.267L4.034 4.724L4.038 4.594L5.033 4.69L4.038 4.594L4.09 4.053L4.111 3.925L5.085 4.149L4.111 3.925L4.233 3.392L4.271 3.267L4.463 2.751L4.578 2.531L4.743 2.346L4.948 2.208L5.181 2.124L5.198 2.12L5.417 3.096L5.198 2.12L5.259 2.109L5.31 2.101L5.378 2.092L5.464 2.084L5.533 2.081L5.654 2.078L5.723 2.079L5.879 2.087L5.946 2.092L6.138 2.115L6.203 2.124L6.432 2.167L6.494 2.18L6.759 2.247L6.818 2.264L7.12 2.359L7.174 2.379L7.514 2.509L7.157 3.443L7.514 2.509L7.565 2.53L7.943 2.699L7.989 2.721L8.405 2.934L8.448 2.957L7.95 3.824Z
    M6.406 19.168L6.102 19.962L6.406 19.168Z
    M8 19.526L7.972 19.251L8 19.393L7.972 19.251Z
    M5.553 19.295L5.821 18.903Z
    M7.572 15.946L7.769 15.179Z
    M6.111 15.503L6.576 14.708L6.264 15.357L6.576 14.708Z
    M5.17 14.396L5.541 13.968Z"
  />
</svg>
