<svg xmlns="http://www.w3.org/2000/svg" width="24" height="24" viewBox="0 0 24 24" fill="currentColor">
  <path d="
    M11 10.054V10L11.034 9.741C11.26 8.899 12.43 8.745 12.866 9.5C12.984 9.704 12.97 9.773 13 10H14L14.259 10.034C14.989 10.23 15.242 11.173 14.707 11.707C14.511 11.904 14.271 11.982 14 12H11.545C11.259 12.017 11.004 12.186 11.004 12.5C11.004 12.814 11.259 12.983 11.545 13H12.5C13.362 13.028 14.141 13.435 14.612 14.166C15.354 15.317 14.97 16.88 13.834 17.612C13.574 17.779 13.297 17.871 13 17.946V18L12.966 18.259C12.74 19.101 11.57 19.255 11.134 18.5C11.016 18.296 11.03 18.227 11 18H10L9.741 17.966C9.011 17.77 8.758 16.827 9.293 16.293C9.489 16.096 9.729 16.018 10 16H12.455C12.741 15.983 12.996 15.814 12.996 15.5C12.996 15.186 12.741 15.017 12.455 15H11.5C10.638 14.972 9.859 14.565 9.388 13.834C8.646 12.683 9.03 11.12 10.166 10.388C10.426 10.221 10.703 10.129 11 10.054Z
    M14.751 6.309C16.636 7.017 17.903 8.246 18.567 10.164L20.273 15.47C20.446 16.056 20.543 16.659 20.504 17.272C20.364 19.458 18.793 21.4 16.628 21.873C16.249 21.955 15.901 21.991 15.513 22H8.487C7.287 21.971 6.114 21.577 5.207 20.772C3.677 19.414 3.153 17.417 3.727 15.47L5.433 10.164C6.097 8.246 7.364 7.017 9.249 6.309C8.805 5.564 8.473 4.791 8.226 3.958C8.196 3.859 8.001 3.255 8 3.005C7.999 2.829 8.045 2.655 8.132 2.503C8.318 2.179 8.639 2.024 9 2H15C15.542 2.036 16.003 2.436 16 3.005C15.998 3.332 15.843 3.735 15.76 4.007C15.511 4.821 15.187 5.578 14.751 6.309Z
    M11.172 8C9.347 8.049 7.934 9.08 7.329 10.802L5.64 16.054C5.336 17.107 5.532 18.224 6.291 19.042C6.876 19.671 7.669 19.975 8.517 20H15.483C15.971 19.986 16.434 19.895 16.872 19.673C18.234 18.98 18.773 17.485 18.36 16.054L16.671 10.802C16.196 9.448 15.128 8.401 13.704 8.092C12.984 7.936 11.757 7.984 11.172 8Z
    M10.345 4C10.517 4.434 10.686 4.862 10.948 5.252C11.611 6.243 12.389 6.243 13.052 5.252C13.314 4.862 13.483 4.434 13.655 4Z"
  />
</svg>
