<svg xmlns="http://www.w3.org/2000/svg" width="24" height="24" viewBox="0 0 24 24" fill="currentColor">
  <path d="
    M9 12.059C11.246 9.813 14.911 11.359 15 14.5V18C14.976 18.36 14.822 18.68 14.5 18.866C13.802 19.269 13.05 18.755 13 18V14.537C12.966 13.607 12.239 12.877 11.277 13.019C10.509 13.132 10.027 13.791 10 14.537V18C9.964 18.543 9.572 19 9 19C8.428 19 8.036 18.543 8 18V14.537C7.967 13.635 7.365 13.033 6.463 13C6.222 12.991 5.924 12.974 5.684 13.054C5.246 13.2 5.018 13.597 5 14.04V18C4.958 18.639 4.397 19.142 3.741 18.966C3.288 18.844 3.03 18.451 3 18V12C3.042 11.361 3.603 10.858 4.259 11.034C4.486 11.095 4.527 11.154 4.709 11.295C5.298 11.046 5.862 10.982 6.5 11C7.458 11.027 8.321 11.38 9 12.059Z
    M20.495 8C21.698 9.703 20.581 11.933 18.5 12H17C16.64 11.976 16.32 11.822 16.134 11.5C15.957 11.193 15.957 10.807 16.134 10.5C16.32 10.178 16.64 10.024 17 10H18.455C18.651 9.989 18.825 9.928 18.929 9.75C19.003 9.623 19.016 9.464 18.965 9.326C18.709 8.634 17.652 9.397 17.134 8.5C17.046 8.348 17 8.176 17 8C17 7.428 17.457 7.036 18 7C18.36 6.976 18.898 7.084 18.988 6.591C19.009 6.475 18.989 6.352 18.929 6.25C18.825 6.072 18.651 6.011 18.455 6H17C16.64 5.976 16.32 5.822 16.134 5.5C16.046 5.348 16 5.176 16 5C16 4.736 16.106 4.479 16.293 4.293C16.489 4.096 16.729 4.018 17 4H18.5C20.581 4.067 21.698 6.297 20.495 8Z"
  />
</svg>
