<svg xmlns="http://www.w3.org/2000/svg" width="24" height="24" viewBox="0 0 24 24" fill="currentColor">
  <path d="
    M6.311 18.75L4.53 20.53C4.418 20.628 4.34 20.685 4.194 20.724C4.003 20.776 3.796 20.748 3.625 20.65C3.184 20.395 3.153 19.831 3.47 19.47L5.25 17.689V13L5.276 12.806C5.315 12.66 5.372 12.582 5.47 12.47L13.47 4.47C15.162 2.857 17.88 2.814 19.529 4.529C21.163 6.228 21.153 8.831 19.53 10.53L11.53 18.53C11.418 18.628 11.34 18.685 11.194 18.724L11 18.75Z
    M13.189 14.75H10.311L7.811 17.25H10.689Z
    M6.75 13.311V16.189L9.25 13.689V10.811Z
    M17.189 10.75H14.311L11.811 13.25H14.689Z
    M10.75 9.311V12.189L13.25 9.689V6.811Z
    M14.75 5.337V9.25H18.664C20.578 6.56 17.456 3.422 14.75 5.337Z"
  />
</svg>
