<svg xmlns="http://www.w3.org/2000/svg" width="24" height="24" viewBox="0 0 24 24" fill="currentColor">
  <path d="
    M6.065 15.759C6.311 15.825 6.311 16.185 6.065 16.251C6.022 16.263 5.978 16.263 5.935 16.251C5.689 16.185 5.689 15.825 5.935 15.759C5.978 15.747 6.022 15.747 6.065 15.759Z
    M18.065 15.759C18.311 15.825 18.311 16.185 18.065 16.251C18.022 16.263 17.978 16.263 17.935 16.251C17.689 16.185 17.689 15.825 17.935 15.759C17.978 15.747 18.022 15.747 18.065 15.759Z
    M12.065 11.759C12.311 11.825 12.311 12.185 12.065 12.251C12.022 12.263 11.978 12.263 11.935 12.251C11.689 12.185 11.689 11.825 11.935 11.759C11.978 11.747 12.022 11.747 12.065 11.759Z
    M12.065 4.759C12.311 4.825 12.311 5.185 12.065 5.251C12.022 5.263 11.978 5.263 11.935 5.251C11.689 5.185 11.689 4.825 11.935 4.759C11.978 4.747 12.022 4.747 12.065 4.759Z
    M14.41 8.5C15.363 9.172 15.993 10.141 16.191 11.294C16.238 11.569 16.259 11.851 16.247 12.129C16.728 11.906 17.252 11.785 17.781 11.756C18.362 11.723 18.947 11.819 19.492 12.021C21.428 12.739 22.547 14.76 22.177 16.783C22.081 17.306 21.881 17.815 21.596 18.264C20.123 20.582 16.898 20.931 14.966 18.977C14.554 18.56 14.227 18.049 14.022 17.499C13.834 16.992 13.737 16.453 13.752 15.913L13.711 15.89C12.628 16.367 11.369 16.367 10.287 15.889L10.247 15.911C10.264 16.444 10.168 16.978 9.985 17.477C9.758 18.095 9.38 18.654 8.902 19.104C8.536 19.449 8.103 19.729 7.638 19.921C5.704 20.718 3.498 20.015 2.389 18.24C2.094 17.768 1.9 17.239 1.807 16.692C1.746 16.331 1.733 15.959 1.769 15.595C1.991 13.374 3.89 11.674 6.131 11.751C6.69 11.77 7.244 11.895 7.753 12.129C7.737 11.772 7.776 11.411 7.854 11.062C8.088 10.008 8.712 9.118 9.59 8.5C9.338 8.322 9.102 8.126 8.892 7.899C7.396 6.283 7.368 3.815 8.83 2.169C9.247 1.7 9.773 1.323 10.352 1.081C10.873 0.864 11.429 0.753 11.993 0.75C12.486 0.748 12.983 0.834 13.446 1.003C15.355 1.701 16.53 3.661 16.197 5.676C16.003 6.847 15.375 7.818 14.41 8.5Z
    M11.779 1.256C9.195 1.406 7.535 4.091 8.551 6.472C8.78 7.008 9.134 7.489 9.58 7.865C9.693 7.961 9.811 8.049 9.935 8.131C10.087 8.231 10.242 8.27 10.25 8.472C10.259 8.719 10.121 8.746 9.931 8.871L9.747 9.001C9.336 9.309 8.991 9.702 8.737 10.149C8.484 10.595 8.324 11.092 8.27 11.602C8.254 11.75 8.248 11.899 8.25 12.048C8.251 12.185 8.298 12.354 8.189 12.466L8.136 12.508L7.914 12.637C7.742 12.724 7.623 12.614 7.46 12.545C7.316 12.484 7.168 12.432 7.017 12.39C6.502 12.244 5.957 12.211 5.428 12.293C2.683 12.717 1.335 15.888 2.936 18.16C4.502 20.384 7.854 20.243 9.233 17.899C9.493 17.457 9.661 16.961 9.723 16.452C9.741 16.302 9.75 16.151 9.75 16C9.75 15.816 9.698 15.666 9.869 15.552L10.148 15.392C10.187 15.372 10.214 15.362 10.259 15.359C10.372 15.353 10.507 15.443 10.594 15.478L10.814 15.559C11.117 15.66 11.434 15.721 11.753 15.742C12.158 15.768 12.566 15.73 12.959 15.627C13.11 15.587 13.259 15.537 13.405 15.478C13.497 15.441 13.583 15.382 13.681 15.364C13.741 15.353 13.796 15.366 13.85 15.393L14.13 15.553L14.183 15.594C14.294 15.705 14.249 15.877 14.249 16.014L14.257 16.241C14.286 16.686 14.395 17.125 14.577 17.533C15.396 19.36 17.518 20.224 19.381 19.486C21.388 18.691 22.31 16.358 21.393 14.405C20.751 13.037 19.323 12.177 17.813 12.255C17.443 12.274 17.078 12.345 16.729 12.471L16.523 12.552C16.363 12.621 16.251 12.723 16.083 12.638L15.863 12.51C15.69 12.393 15.747 12.236 15.75 12.05C15.752 11.9 15.745 11.751 15.729 11.603C15.675 11.093 15.515 10.596 15.263 10.15C15.046 9.768 14.762 9.424 14.427 9.14C14.313 9.043 14.194 8.954 14.069 8.872C13.987 8.817 13.841 8.76 13.784 8.659C13.752 8.601 13.748 8.532 13.751 8.467C13.761 8.266 13.919 8.227 14.072 8.126L14.258 7.995C14.791 7.594 15.21 7.051 15.465 6.435C15.98 5.191 15.784 3.749 14.954 2.689C14.201 1.727 12.999 1.186 11.779 1.256Z"
  />
</svg>
