<svg xmlns="http://www.w3.org/2000/svg" width="24" height="24" viewBox="0 0 24 24" fill="currentColor">
  <path d="
    M12.172 15.516C12.392 15.555 12.595 15.668 12.744 15.834C13.371 16.534 12.753 17.644 11.828 17.484C11.292 17.39 10.924 16.863 11.016 16.328C11.11 15.792 11.636 15.424 12.172 15.516Z
    M12.172 6.516C12.392 6.555 12.595 6.668 12.744 6.834C13.371 7.534 12.753 8.644 11.828 8.484C11.292 8.39 10.924 7.863 11.016 7.328C11.11 6.792 11.636 6.424 12.172 6.516Z
    M12.507 2.513C13.687 2.572 14.862 2.859 15.936 3.351C22.149 6.204 23.433 14.438 18.375 19.044C17.526 19.816 16.527 20.436 15.457 20.851C14.19 21.342 12.823 21.565 11.466 21.485C10.293 21.416 9.133 21.139 8.064 20.649C1.849 17.795 0.568 9.561 5.625 4.956C6.474 4.184 7.473 3.564 8.543 3.149C9.806 2.66 11.155 2.447 12.507 2.513Z
    M8.005 4.498C7.523 4.764 7.064 5.058 6.636 5.406C4.154 7.428 3.013 10.696 3.696 13.824C4.434 17.201 7.209 19.832 10.621 20.389C11.473 20.528 12.374 20.578 13.207 20.314C16.12 19.394 16.96 15.65 14.723 13.57C14.142 13.03 13.403 12.67 12.619 12.548C12.206 12.484 12.151 12.521 11.629 12.486C11.115 12.451 10.599 12.331 10.122 12.135C7.079 10.884 6.04 7.139 8.005 4.498Z
    M15.995 19.502C16.477 19.236 16.936 18.942 17.364 18.594C19.846 16.572 20.987 13.304 20.304 10.176C19.566 6.799 16.791 4.168 13.379 3.611C12.527 3.472 11.626 3.422 10.793 3.686C7.88 4.606 7.04 8.35 9.277 10.43C9.858 10.97 10.597 11.33 11.381 11.452C11.794 11.516 11.849 11.479 12.371 11.514C12.885 11.549 13.401 11.669 13.878 11.865C16.921 13.116 17.96 16.861 15.995 19.502Z"
  />
</svg>
