<svg width="24" height="24" viewBox="0 0 24 24" xmlns="http://www.w3.org/2000/svg" fill="currentColor">
  <path d="
    M17.035 5.5L15.942 7.14L17.58 10.212C18.427 9.961 19.341 9.927 20.2 10.147C20.918 10.33 21.599 10.659 22.169 11.134C24.431 13.019 24.643 16.505 22.496 18.573C21.966 19.083 21.332 19.491 20.632 19.726C19.725 20.03 18.731 20.092 17.8 19.853C16.727 19.579 15.746 18.964 15.066 18.084C14.366 17.178 14.044 16.135 14.002 15H12C11.61 14.974 11.328 14.805 11.12 14.474L8.564 9.728L7.976 10.988C8.758 11.559 9.344 12.358 9.688 13.262C9.961 13.981 10.044 14.761 9.971 15.524C9.645 18.967 5.944 20.957 2.851 19.514C1.994 19.115 1.243 18.441 0.751 17.634C0.17 16.681 -0.077 15.586 0.029 14.476C0.246 12.187 2.109 10.35 4.361 10.042C4.971 9.958 5.567 10.017 6.165 10.138L7.411 7.469C7.065 6.755 6.566 6.038 5.826 5.69C5.656 5.61 5.48 5.554 5.295 5.525C5.042 5.487 4.901 5.525 4.668 5.443C4.334 5.326 4.082 5.032 4.017 4.684C3.969 4.425 4.026 4.153 4.175 3.935C4.603 3.309 5.47 3.487 6.09 3.657C7.509 4.047 8.518 5.241 9.165 6.5H13.965L14.631 5.5C14.266 5.5 13.838 5.561 13.5 5.366C12.745 4.93 12.899 3.76 13.741 3.534L14 3.5H18.5C18.771 3.518 19.011 3.596 19.207 3.793C19.457 4.043 19.558 4.417 19.466 4.759C19.344 5.212 18.951 5.47 18.5 5.5Z
    M18.554 12.039L19.882 14.529C20.194 15.219 19.772 16.027 18.966 15.999C18.791 15.994 18.62 15.942 18.471 15.849C18.3 15.742 18.222 15.639 18.118 15.471L16.79 12.98C15.175 14.781 16.217 17.696 18.649 17.978C19.219 18.044 19.803 17.947 20.318 17.694C20.813 17.452 21.237 17.072 21.532 16.607C22.93 14.409 21.088 11.715 18.554 12.039Z
    M7.101 12.862L5.906 15.423C5.542 16.086 4.643 16.234 4.181 15.573C4.08 15.43 4.019 15.262 4.004 15.087C3.986 14.886 4.022 14.762 4.094 14.577L5.288 12.018C4.841 11.992 4.414 12.024 3.988 12.176C2.331 12.769 1.531 14.737 2.306 16.318C2.597 16.913 3.087 17.403 3.682 17.694C4.197 17.947 4.781 18.044 5.351 17.978C7.255 17.758 8.469 15.792 7.824 13.988C7.668 13.552 7.413 13.199 7.101 12.862Z
    M12.597 13H14.423C14.733 12.266 15.225 11.677 15.813 11.15L14.4 8.5H10.174Z"
  />
</svg>
